<svg id="Layer_1" data-name="Layer 1" xmlns="http://www.w3.org/2000/svg" viewBox="0 0 400 400"><title>ellipse</title><path d="M80.61,179.28a25.62,25.62,0,0,1,9.14,1.64,25.78,25.78,0,0,1,13.48,11.42,24.5,24.5,0,0,1,3,8.73,1.71,1.71,0,0,1-.29,1.58,2.66,2.66,0,0,1-1.46.88H69.83a2.11,2.11,0,1,1,0-4.22h31.75a20.31,20.31,0,0,0-2.93-6.39,22.17,22.17,0,0,0-4.75-5,22.13,22.13,0,0,0-23.79-1.82,21.23,21.23,0,0,0-7.91,7.44,19.79,19.79,0,0,0-3.16,8.2q-.12.94-.18,1.76t-.06,1.76a21.15,21.15,0,0,0,1.7,8.5,22.16,22.16,0,0,0,11.6,11.6,21.15,21.15,0,0,0,8.5,1.7,21.8,21.8,0,0,0,9.78-2.23A20.73,20.73,0,0,0,98,218.53a21.63,21.63,0,0,0,2.58-4.22,1.81,1.81,0,0,1,2.7-1.05,2,2,0,0,1,1.11,1.17,2.18,2.18,0,0,1-.06,1.64,24.93,24.93,0,0,1-2.93,4.92,26,26,0,0,1-9.14,7.62,25.57,25.57,0,0,1-11.6,2.7,25.25,25.25,0,0,1-10.14-2.05,26,26,0,0,1-13.83-13.83,25.27,25.27,0,0,1-2.05-10.14,25.62,25.62,0,0,1,.35-4.22A29.45,29.45,0,0,1,56.3,196a20.92,20.92,0,0,1,2.4-4.63,25.7,25.7,0,0,1,21.91-12.07Z"/><path d="M119,210.33a2,2,0,0,1-2.11-2.11v-56.6a2,2,0,0,1,2.11-2.11,1.87,1.87,0,0,1,1.46.59,2.19,2.19,0,0,1,.53,1.52v56.6a2.19,2.19,0,0,1-.53,1.52A1.87,1.87,0,0,1,119,210.33Zm8.44,21a10.41,10.41,0,0,1-10.55-10.55,2,2,0,0,1,2.11-2.11,1.87,1.87,0,0,1,1.46.59,2.19,2.19,0,0,1,.53,1.52,6.4,6.4,0,0,0,6.44,6.44,2.19,2.19,0,0,1,1.52.53,1.87,1.87,0,0,1,.59,1.46,2,2,0,0,1-2.11,2.11Z"/><path d="M144.82,210.33a2,2,0,0,1-2.11-2.11v-56.6a2,2,0,0,1,2.11-2.11,1.87,1.87,0,0,1,1.46.59,2.19,2.19,0,0,1,.53,1.52v56.6a2.19,2.19,0,0,1-.53,1.52A1.87,1.87,0,0,1,144.82,210.33Zm8.44,21a10.41,10.41,0,0,1-10.55-10.55,2,2,0,0,1,2.11-2.11,1.87,1.87,0,0,1,1.46.59,2.19,2.19,0,0,1,.53,1.52,6.4,6.4,0,0,0,6.44,6.44,2.19,2.19,0,0,1,1.52.53,1.87,1.87,0,0,1,.59,1.46,2,2,0,0,1-2.11,2.11Z"/><path d="M172.71,165.33a3.93,3.93,0,0,1,2.87,1.23,4.07,4.07,0,0,1,1.23,3,4.21,4.21,0,0,1-4.1,4.1,4.07,4.07,0,0,1-3-1.23,3.93,3.93,0,0,1-1.23-2.87,4.2,4.2,0,0,1,4.22-4.22Zm0,14.88a1.92,1.92,0,0,1,1.41.59,2.06,2.06,0,0,1,.59,1.52v27.77a1.87,1.87,0,0,1-.59,1.46,2,2,0,0,1-1.41.53,2.19,2.19,0,0,1-1.52-.53,1.87,1.87,0,0,1-.59-1.46V182.32a2,2,0,0,1,2.11-2.11Zm0,41.72a1.92,1.92,0,0,1,1.41.59,2.06,2.06,0,0,1,.59,1.52v5.16a2.06,2.06,0,0,1-.59,1.52,1.92,1.92,0,0,1-1.41.59,2,2,0,0,1-2.11-2.11V224a2,2,0,0,1,2.11-2.11Z"/><path d="M214.77,179.28a25.3,25.3,0,0,1,10.14,2.05,26.19,26.19,0,0,1,13.83,13.77,24.6,24.6,0,0,1,2.05,10,25.29,25.29,0,0,1-2.05,10.14A26,26,0,0,1,224.91,229,25.68,25.68,0,0,1,208,230.13a22.69,22.69,0,0,1-6.44-2.93,1.9,1.9,0,0,1-.7-2.81,2.24,2.24,0,0,1,1.29-.94,1.76,1.76,0,0,1,1.52.23,20.51,20.51,0,0,0,11.13,3.16,21.16,21.16,0,0,0,8.5-1.7,22.17,22.17,0,0,0,11.6-11.6,21.19,21.19,0,0,0,1.7-8.5,20.9,20.9,0,0,0-1.7-8.38,21.43,21.43,0,0,0-4.69-6.85,22.65,22.65,0,0,0-6.91-4.63,21.18,21.18,0,0,0-8.5-1.7,20.88,20.88,0,0,0-8.38,1.7,21.74,21.74,0,0,0-11.48,11.48,20.87,20.87,0,0,0-1.7,8.38v56.13a1.84,1.84,0,0,1-.64,1.41,2.27,2.27,0,0,1-1.58.59,2,2,0,0,1-2-2v-79.8a2.06,2.06,0,0,1,.59-1.52,1.92,1.92,0,0,1,1.41-.59,2.27,2.27,0,0,1,1.58.59,2,2,0,0,1,.64,1.52v9.73a26.15,26.15,0,0,1,9.08-8.55A24.52,24.52,0,0,1,214.77,179.28Z"/><path d="M257.31,204.59a2.48,2.48,0,0,1,.88,1.41,1.92,1.92,0,0,1-.29,1.52,12.41,12.41,0,0,0-2.11,7,10.78,10.78,0,0,0,.47,3.4,2,2,0,0,1-1.52,2.58.93.93,0,0,1-.59.12,2,2,0,0,1-2-1.52,13.41,13.41,0,0,1-.35-1.52,9.17,9.17,0,0,1-.12-1.52l-.12-.12v-1.41a16.54,16.54,0,0,1,2.81-9.37A2,2,0,0,1,257.31,204.59Zm21.33-3.28a16.32,16.32,0,0,1,4.75,5.8,16.79,16.79,0,0,1-24.55,21.27,2.11,2.11,0,1,1,2.34-3.51,11.78,11.78,0,0,0,7.15,2.23,12,12,0,0,0,4.86-1,13.52,13.52,0,0,0,4-2.69,12.34,12.34,0,0,0,2.75-4,12.7,12.7,0,0,0-11.66-17.52,10.65,10.65,0,0,1-7.91-3.28,11.34,11.34,0,0,1,12.42-18.46,12,12,0,0,1,3.63,2.4,10.68,10.68,0,0,1,2.46,3.63,11.47,11.47,0,0,1,.88,4.45,2.11,2.11,0,1,1-4.22,0,7.17,7.17,0,0,0-12.19-5.1,7.18,7.18,0,0,0,5,12.25h.12A16.15,16.15,0,0,1,278.63,201.31Z"/><path d="M322.69,179.28a25.62,25.62,0,0,1,9.14,1.64,25.78,25.78,0,0,1,13.47,11.42,24.49,24.49,0,0,1,3,8.73,1.71,1.71,0,0,1-.29,1.58,2.66,2.66,0,0,1-1.46.88H311.91a2.11,2.11,0,1,1,0-4.22h31.75a20.33,20.33,0,0,0-2.93-6.39,22.15,22.15,0,0,0-4.75-5,22.13,22.13,0,0,0-23.79-1.82,21.23,21.23,0,0,0-7.91,7.44,19.78,19.78,0,0,0-3.16,8.2q-.12.94-.18,1.76c0,.55-.06,1.13-.06,1.76a21.15,21.15,0,0,0,1.7,8.5,22.17,22.17,0,0,0,11.6,11.6,21.15,21.15,0,0,0,8.5,1.7,21.81,21.81,0,0,0,9.78-2.23,20.73,20.73,0,0,0,7.56-6.33,21.66,21.66,0,0,0,2.58-4.22,1.81,1.81,0,0,1,2.69-1.05,2,2,0,0,1,1.11,1.17,2.17,2.17,0,0,1-.06,1.64,24.93,24.93,0,0,1-2.93,4.92,26,26,0,0,1-9.14,7.62,25.57,25.57,0,0,1-11.6,2.7,25.26,25.26,0,0,1-10.14-2.05,26,26,0,0,1-13.83-13.83,25.26,25.26,0,0,1-2.05-10.14,25.62,25.62,0,0,1,.35-4.22,29.49,29.49,0,0,1,1.35-5.1,20.9,20.9,0,0,1,2.4-4.63,25.7,25.7,0,0,1,21.91-12.07Z"/></svg>